<svg width="124" height="44" viewBox="0 0 124 44" fill="none" xmlns="http://www.w3.org/2000/svg">
<g clip-path="url(#clip0)">
<path d="M21.9601 44.0002C34.0883 44.0002 43.9202 34.1507 43.9202 22.0007C43.9202 9.85064 34.0883 0.00109863 21.9601 0.00109863C9.83187 0.00109863 0 9.85064 0 22.0007C0 34.1507 9.83187 44.0002 21.9601 44.0002Z" fill="#1C4A9B"/>
<path d="M59.8238 21.027C61.9414 21.027 63.7048 21.7323 65.1138 23.143C66.5229 24.5537 67.2274 26.308 67.2274 28.4061C67.2274 30.4852 66.5229 32.2359 65.1138 33.6583C63.7048 35.0807 61.9414 35.7923 59.8238 35.7932H54.55V43.9982H51.5029V21.027H59.8238ZM59.8238 32.939C61.0901 32.939 62.1386 32.5072 62.9693 31.6435C63.8 30.7798 64.2149 29.7002 64.214 28.4047C64.214 27.093 63.7991 26.0102 62.9693 25.1565C62.1395 24.3027 61.091 23.8758 59.8238 23.8758H54.55V32.9336L59.8238 32.939Z" fill="#1C4A9B"/>
<path d="M79.152 21.027C81.2696 21.027 83.0329 21.7323 84.4419 23.143C85.851 24.5537 86.5555 26.308 86.5555 28.4061C86.5555 30.4852 85.851 32.2359 84.4419 33.6583C83.0329 35.0807 81.2696 35.7923 79.152 35.7932H73.8781V43.9982H70.8311V21.027H79.152ZM79.152 32.939C80.4182 32.939 81.4667 32.5072 82.2974 31.6435C83.1281 30.7798 83.543 29.7002 83.5421 28.4047C83.5421 27.093 83.1272 26.0102 82.2974 25.1565C81.4676 24.3027 80.4191 23.8758 79.152 23.8758H73.8781V32.9336L79.152 32.939Z" fill="#1C4A9B"/>
<path d="M97.6618 27.1632C99.5828 27.1632 101.122 27.7705 102.28 28.985C103.437 30.1996 104.016 31.846 104.016 33.9242V43.9996H101.167V34.0888C101.167 32.7546 100.808 31.72 100.089 30.985C99.3708 30.25 98.3771 29.8838 97.1082 29.8865C95.6884 29.8865 94.542 30.3296 93.6691 31.2158C92.7962 32.1019 92.3593 33.4636 92.3584 35.3007V43.9982H89.5039V27.5897H92.3543V29.9526C93.5119 28.0939 95.2811 27.1641 97.6618 27.1632Z" fill="#1C4A9B"/>
<path d="M116.596 21.027C118.714 21.027 120.477 21.7323 121.886 23.143C123.295 24.5537 124 26.308 124 28.4061C124 30.4852 123.295 32.2359 121.886 33.6583C120.477 35.0807 118.714 35.7923 116.596 35.7932H111.321V43.9982H108.275V21.027H116.596ZM116.596 32.939C117.863 32.939 118.911 32.5072 119.74 31.6435C120.57 30.7798 120.986 29.7002 120.986 28.4047C120.986 27.093 120.571 26.0102 119.74 25.1565C118.91 24.3027 117.862 23.8758 116.596 23.8758H111.321V32.9336L116.596 32.939Z" fill="#1C4A9B"/>
<path d="M57.3611 9.06506V10.0772H54.9835V17.1175H53.9274V10.0772H51.5605V9.06506H57.3611Z" fill="#1C4A9B"/>
<path d="M63.9418 14.7019C64.017 15.1758 64.2694 15.6032 64.6477 15.8975C65.0444 16.1902 65.528 16.3404 66.0204 16.324C66.7774 16.324 67.3284 16.0437 67.6732 15.4832L68.5232 15.9664C67.9637 16.8345 67.1218 17.2682 65.9975 17.2673C65.085 17.2673 64.3442 16.9816 63.7748 16.4103C63.4922 16.1264 63.2706 15.7875 63.1235 15.4146C62.9764 15.0416 62.9069 14.6425 62.9194 14.2417C62.9079 13.844 62.9761 13.4479 63.12 13.0771C63.2639 12.7062 63.4806 12.368 63.7573 12.0825C64.3168 11.5076 65.0406 11.2202 65.9288 11.2202C66.3165 11.208 66.7021 11.2815 67.0583 11.4354C67.4145 11.5894 67.7325 11.82 67.9898 12.1108C68.5188 12.6981 68.8041 13.4656 68.7873 14.2565C68.7871 14.407 68.7759 14.5572 68.7536 14.7059L63.9418 14.7019ZM65.9288 12.1594C65.4486 12.1349 64.9769 12.2932 64.6084 12.6026C64.2398 12.9119 64.0017 13.3495 63.9418 13.8274H67.777C67.6916 13.2822 67.4775 12.8679 67.1344 12.5845C66.7959 12.3035 66.3684 12.1527 65.9288 12.1594Z" fill="#1C4A9B"/>
<path d="M80.6499 11.3672H81.6494V17.1202H80.6499V16.131C80.1524 16.8894 79.429 17.2691 78.4797 17.27C78.0948 17.2752 77.713 17.1996 77.3589 17.0481C77.0049 16.8965 76.6864 16.6724 76.4241 16.3901C75.8782 15.8095 75.5742 15.042 75.5742 14.2444C75.5742 13.4468 75.8782 12.6793 76.4241 12.0987C76.6862 11.8161 77.0046 11.5918 77.3587 11.4402C77.7128 11.2887 78.0947 11.2132 78.4797 11.2188C79.4281 11.2188 80.1515 11.5985 80.6499 12.3578V11.3672ZM78.6064 16.3037C78.8769 16.3103 79.1458 16.2612 79.3966 16.1593C79.6473 16.0573 79.8745 15.9049 80.0639 15.7113C80.4399 15.3158 80.6497 14.7906 80.6497 14.2444C80.6497 13.6982 80.4399 13.1729 80.0639 12.7775C79.6754 12.3976 79.154 12.1849 78.6111 12.1849C78.0682 12.1849 77.5468 12.3976 77.1582 12.7775C76.7828 13.1733 76.5735 13.6984 76.5735 14.2444C76.5735 14.7904 76.7828 15.3155 77.1582 15.7113C77.3464 15.9038 77.572 16.0555 77.8211 16.1569C78.0702 16.2584 78.3375 16.3074 78.6064 16.301V16.3037Z" fill="#1C4A9B"/>
<path d="M95.326 11.2161C95.6155 11.2047 95.9042 11.2546 96.1732 11.3625C96.4422 11.4704 96.6855 11.6338 96.8873 11.8422C97.286 12.2606 97.4854 12.8265 97.4854 13.5399V17.1174H96.4831V13.5736C96.4831 13.1292 96.3682 12.7842 96.1383 12.5386C96.0201 12.4152 95.8771 12.3185 95.7186 12.255C95.5602 12.1914 95.3901 12.1625 95.2196 12.1702C95.0271 12.1622 94.8353 12.1968 94.6577 12.2714C94.48 12.3461 94.321 12.4589 94.1917 12.602C93.9358 12.889 93.8078 13.328 93.8078 13.9191V17.1174H92.8083V13.5736C92.8083 13.1292 92.6992 12.7842 92.4809 12.5386C92.3684 12.4169 92.2306 12.3214 92.0772 12.2589C91.9238 12.1965 91.7586 12.1684 91.5932 12.1769C91.3973 12.1719 91.2025 12.2083 91.0215 12.2836C90.8405 12.3589 90.6773 12.4716 90.5425 12.6141C90.2641 12.9056 90.1245 13.3429 90.1236 13.9259V17.1242H89.124V11.3672H90.1236V12.1391C90.3 11.846 90.552 11.6059 90.853 11.4439C91.154 11.282 91.493 11.2042 91.8344 11.2188C92.6076 11.2188 93.1707 11.5444 93.5236 12.1958C93.9214 11.5426 94.5222 11.2161 95.326 11.2161Z" fill="#1C4A9B"/>
<path d="M11.1377 12.9827V16.5076H15.3594V31.0174H19.464V16.5157H27.5788V31.0174H31.7884V12.9827H11.1377Z" fill="white"/>
</g>
<defs>
<clipPath id="clip0">
<rect width="124" height="44" fill="white"/>
</clipPath>
</defs>
</svg>
