<svg viewBox="0 0 20 25" fill="none" xmlns="http://www.w3.org/2000/svg">
<path d="M16 7C16 5.4087 15.3679 3.88258 14.2426 2.75736C13.1174 1.63214 11.5913 1 10 1C8.4087 1 6.88258 1.63214 5.75736 2.75736C4.63214 3.88258 4 5.4087 4 7C4 14 1 16 1 16H19C19 16 16 14 16 7Z" stroke="#000" stroke-width="2" stroke-linecap="round" stroke-linejoin="round"/>
<path d="M11.7295 23C11.5537 23.3031 11.3014 23.5547 10.9978 23.7295C10.6941 23.9044 10.3499 23.9965 9.99953 23.9965C9.64915 23.9965 9.30492 23.9044 9.0013 23.7295C8.69769 23.5547 8.44534 23.3031 8.26953 23" stroke="#000" stroke-width="2" stroke-linecap="round" stroke-linejoin="round"/>
</svg>
