<svg fill="none" height="117" viewBox="0 0 117 117" width="117" xmlns="http://www.w3.org/2000/svg" xmlns:xlink="http://www.w3.org/1999/xlink"><clipPath id="a"><path d="m0 0h117v117h-117z"/></clipPath><g clip-path="url(#a)"><path d="m35.9583 104.097 16.3039-39.3599-13.0928-5.4234-18.7844 45.3483c-.7914 1.911.999 3.879 2.9759 3.273l10.6514-3.269c.316-.097.6202-.126.9332-.096z" fill="#ffe07d"/><path d="m51.5648 64.4475-16.6195 40.1225c.8044.071 1.5466.538 1.944 1.288l5.2202 9.843c.9689 1.827 3.6272 1.7 4.4188-.21l18.7844-45.3487z" fill="#ffd064"/><path d="m65.7991 64.2959-14.1136 5.8463 18.7845 45.3488c.7913 1.91 3.4497 2.036 4.4188.209l5.2202-9.843c.1607-.303.378-.56.6328-.764l1.2781-1.615z" fill="#ffe07d"/><path d="m96.6151 104.661-18.7845-45.3483-13.6997 5.6748 16.6135 40.1075c.6159-.492 1.4506-.673 2.2433-.43l10.6514 3.269c1.9771.607 3.7675-1.362 2.976-3.273z" fill="#ffd064"/><path d="m63.2166 1.64394c1.9646 1.55871 4.5724 2.04613 6.9675 1.30254 3.3678-1.04592 7.0122.36608 8.7965 3.40785 1.2689 2.16313 3.5244 3.55982 6.0264 3.73147 3.5182.2413 6.4064 2.8745 6.9715 6.3554.4018 2.4756 2.0007 4.5925 4.2717 5.6565 3.1935 1.4961 4.9358 4.9947 4.2048 8.4446-.5195 2.4533.206 5.0051 1.94 6.8175 2.437 2.5486 2.798 6.4402.87 9.3934-1.371 2.1-1.615 4.7417-.654 7.0579 1.352 3.257.283 7.0161-2.581 9.0734-2.0372 1.463-3.2197 3.838-3.1599 6.345.0844 3.5255-2.2709 6.6443-5.685 7.5282-2.4277.6284-4.3884 2.4159-5.2382 4.7753-1.1949 3.3178-4.518 5.3754-8.0207 4.9661-2.4908-.2909-4.9647.6673-6.6096 2.5605-2.3128 2.6622-6.1546 3.3802-9.2729 1.7335-2.2175-1.1711-4.8706-1.1711-7.0881 0-3.1184 1.647-6.9602.9287-9.273-1.7335-1.6448-1.8932-4.1185-2.8514-6.6095-2.5605-3.5027.4093-6.8256-1.6483-8.0207-4.9661-.8499-2.3594-2.8103-4.1469-5.2383-4.7753-3.414-.8837-5.7693-4.0027-5.685-7.5282.0599-2.507-1.1227-4.882-3.1595-6.345-2.8642-2.0573-3.9336-5.8164-2.5815-9.0734.9616-2.3162.7169-4.9579-.654-7.0579-1.9275-2.9532-1.5669-6.8448.8704-9.3934 1.7333-1.8124 2.4593-4.3642 1.9399-6.8175-.7306-3.4499 1.0114-6.9487 4.2049-8.4446 2.271-1.064 3.8697-3.1809 4.2716-5.6565.5649-3.4809 3.4534-6.1139 6.9716-6.3554 2.502-.17165 4.7575-1.56834 6.0264-3.73147 1.7843-3.04177 5.4289-4.45354 8.7965-3.40785 2.3951.74382 5.0029.25617 6.9674-1.30254 2.7628-2.19192 6.6713-2.19192 9.4338 0z" fill="#e8ae4d"/><path d="m79.2045 45.8355c0-15.4716-9.9811-28.6113-23.8552-33.3335-17.0133 1.5877-30.3298 15.9053-30.3298 33.3335s13.3165 31.7459 30.3298 33.3336c13.8743-4.7223 23.8552-17.8617 23.8552-33.3336z" fill="#ffe07d"/><path d="m58.4994 12.3557c-2.563 0-5.0584.2891-7.4564.8346 14.901 3.3893 26.0233 16.7179 26.0233 32.6452s-11.1223 29.256-26.0233 32.6453c2.398.5455 4.8934.8346 7.4564.8346 18.4904 0 33.4799-14.9895 33.4799-33.4799 0-18.4903-14.9895-33.4798-33.4799-33.4798z" fill="#ffd064"/><path d="m59.421 58.6856 11.5554 7.7782c.4543.3058.9563.3508 1.3957.2155.4084-.555.801-1.1225 1.1771-1.7015-.0089-.1104-.0292-.2233-.0619-.338l-3.8267-13.3933c-.1847-.6465.0407-1.3402.5701-1.7545l8.8248-6.9083c-.1464-1.5996-.4001-3.1683-.7534-4.6989l-11.9824-.4299c-.6719-.024-1.2621-.4529-1.4925-1.0843l-4.7768-13.085c-.5284-1.4472-2.5752-1.4472-3.1035 0l-4.7767 13.0846c-.2306.6313-.8206 1.0603-1.4924 1.0843l-13.9203.4993c-1.5397.0553-2.172 2.0018-.9591 2.9515l10.9683 8.5862c.5293.4143.7548 1.1081.5702 1.7546l-3.8267 13.3933c-.4233 1.4814 1.2326 2.6843 2.5107 1.8242l11.5553-7.7782c.5578-.375 1.2872-.375 1.8448.0002z" fill="#e8ae4d"/><g fill="#e5a32e"><path d="m70.9777 66.4641c1.2781.8604 2.9339-.3428 2.5107-1.8242l-.6938-2.4285c-.7447 1.3252-1.5779 2.5939-2.4899 3.7998z"/><path d="m80.2401 37.9542-4.1444-.1488c.5059 2.0548.8213 4.1841.9282 6.3688l4.1753-3.2685c1.2129-.9495.5804-2.8962-.9591-2.9515z"/></g></g></svg>