<svg width="23" height="32" viewBox="0 0 23 32" fill="none" xmlns="http://www.w3.org/2000/svg">
<path d="M16 14C16 12.4087 15.3679 10.8826 14.2426 9.75736C13.1174 8.63214 11.5913 8 10 8C8.4087 8 6.88258 8.63214 5.75736 9.75736C4.63214 10.8826 4 12.4087 4 14C4 21 1 23 1 23H19C19 23 16 21 16 14Z" stroke="#000" stroke-width="2" stroke-linecap="round" stroke-linejoin="round"/>
<path d="M11.7295 30C11.5537 30.3031 11.3014 30.5547 10.9978 30.7295C10.6941 30.9044 10.3499 30.9965 9.99953 30.9965C9.64915 30.9965 9.30492 30.9044 9.0013 30.7295C8.69769 30.5547 8.44534 30.3031 8.26953 30" stroke="#000" stroke-width="2" stroke-linecap="round" stroke-linejoin="round"/>
<circle cx="17" cy="6" r="6" fill="#00bfb9"/>
</svg>
