<svg fill="none" height="32" viewBox="0 0 23 32" width="23" xmlns="http://www.w3.org/2000/svg"><path d="m16 14c0-1.5913-.6321-3.1174-1.7574-4.24264-1.1252-1.12522-2.6513-1.75736-4.2426-1.75736s-3.11742.63214-4.24264 1.75736c-1.12522 1.12524-1.75736 2.65134-1.75736 4.24264 0 7-3 9-3 9h18s-3-2-3-9z" stroke="#000" stroke-linecap="round" stroke-linejoin="round" stroke-width="2"/><path d="m11.7295 30c-.1758.3031-.4281.5547-.7317.7295-.3037.1749-.6479.267-.99827.267-.35038 0-.69461-.0921-.99823-.267-.30361-.1748-.55596-.4264-.73177-.7295" stroke="#000" stroke-linecap="round" stroke-linejoin="round" stroke-width="2"/><circle cx="17" cy="6" fill="#00bfb9" r="6"/></svg>